<svg width="21" height="20" viewBox="0 0 21 20" fill="none" xmlns="http://www.w3.org/2000/svg">
<path fill-rule="evenodd" clip-rule="evenodd" d="M10.5001 3.33329C8.73197 3.33329 7.03628 4.03567 5.78604 5.28591C4.53579 6.53616 3.83341 8.23185 3.83341 9.99996C3.83341 10.8754 4.00585 11.7423 4.34088 12.5512C4.67592 13.36 5.16698 14.0949 5.78604 14.714C6.40509 15.3331 7.14002 15.8241 7.94886 16.1592C8.7577 16.4942 9.6246 16.6666 10.5001 16.6666C11.3756 16.6666 12.2425 16.4942 13.0513 16.1592C13.8601 15.8241 14.5951 15.3331 15.2141 14.714C15.8332 14.0949 16.3242 13.36 16.6593 12.5512C16.9943 11.7423 17.1667 10.8754 17.1667 9.99996C17.1667 8.23185 16.4644 6.53616 15.2141 5.28591C13.9639 4.03567 12.2682 3.33329 10.5001 3.33329ZM4.60752 4.1074C6.17033 2.5446 8.28994 1.66663 10.5001 1.66663C12.7102 1.66663 14.8298 2.5446 16.3926 4.1074C17.9554 5.67021 18.8334 7.78982 18.8334 9.99996C18.8334 11.0943 18.6179 12.1779 18.1991 13.189C17.7803 14.2 17.1665 15.1187 16.3926 15.8925C15.6188 16.6663 14.7002 17.2802 13.6891 17.699C12.6781 18.1177 11.5944 18.3333 10.5001 18.3333C9.40573 18.3333 8.3221 18.1177 7.31105 17.699C6.30001 17.2802 5.38135 16.6663 4.60752 15.8925C3.8337 15.1187 3.21987 14.2 2.80109 13.189C2.3823 12.1779 2.16675 11.0943 2.16675 9.99996C2.16675 7.78982 3.04472 5.67021 4.60752 4.1074ZM9.66675 5.83329H11.3417V7.49996H9.66675V5.83329ZM11.3334 9.16663V14.1666H9.66675V9.16663H11.3334Z" fill="#1D1F22"/>
</svg>
