<svg width="60" height="60" viewBox="0 0 60 60" fill="none" xmlns="http://www.w3.org/2000/svg">
<path opacity="0.04" d="M43 27L60 27V33H43V27Z" fill="#3690BE"/>
<path opacity="0.16" d="M37.071 41.3135L41.3137 37.0708L53.3345 49.0917L49.0919 53.3343L37.071 41.3135Z" fill="#3690BE"/>
<path opacity="0.3" d="M33 60L27 60L27 43L33 43L33 60Z" fill="#3690BE"/>
<path opacity="0.44" d="M10.9082 53.3345L6.66556 49.0918L18.6864 37.071L22.929 41.3137L10.9082 53.3345Z" fill="#3690BE"/>
<path opacity="0.58" d="M17 27L17 33L-2.62268e-07 33L0 27L17 27Z" fill="#3690BE"/>
<path opacity="0.72" d="M6.66553 10.9082L10.9082 6.66556L22.929 18.6864L18.6863 22.929L6.66553 10.9082Z" fill="#3690BE"/>
<path opacity="0.86" d="M27 0H33V17H27V0Z" fill="#3690BE"/>
<path d="M41.3137 22.9287L37.0711 18.6861L49.0919 6.66525L53.3345 10.9079L41.3137 22.9287Z" fill="#3690BE"/>
</svg>
