<svg width="266" height="64" viewBox="0 0 266 64" fill="none" xmlns="http://www.w3.org/2000/svg">
<g clip-path="url(#clip0_17406_40649)">
<path d="M90.5269 35.811V50.8383H92.9233V52.7555H84.8599V50.359C84.1832 51.374 83.422 52.1071 82.548 52.53C81.674 52.9811 80.5744 53.2066 79.2493 53.2066C77.3603 53.2066 75.9225 52.6427 74.9357 51.515C73.9489 50.3872 73.4696 48.752 73.4696 46.5529V37.7H71.0449V35.7828H79.1084V45.6789C79.1084 47.7934 79.2775 49.1185 79.644 49.6824C79.9824 50.2463 80.6308 50.5282 81.5612 50.5282C82.689 50.5282 83.5348 50.1053 84.0705 49.2595C84.6061 48.4137 84.8599 47.0886 84.8599 45.256V37.6718H82.8017V35.7546H90.5269V35.811Z" fill="#D1050C"/>
<path d="M110.403 35.6136V40.6603H108.599C108.543 39.7581 108.289 39.0815 107.866 38.6304C107.443 38.1793 106.823 37.9819 106.005 37.9819C104.765 37.9819 103.806 38.5176 103.101 39.6171C102.396 40.6885 102.03 42.211 102.03 44.1281V50.8383H105.103V52.7555H93.9664V50.8383H96.3629V37.7563H93.769V35.8392H102.002V38.8559C102.566 37.6718 103.299 36.7978 104.201 36.2339C105.103 35.67 106.231 35.3881 107.528 35.3881C107.866 35.3881 108.261 35.4163 108.74 35.4726C109.219 35.4726 109.783 35.529 110.403 35.6136Z" fill="#D1050C"/>
<path d="M128.617 45.0868H116.973V45.2278C116.973 47.4269 117.311 49.0057 117.96 49.9643C118.608 50.9511 119.679 51.4304 121.145 51.4304C122.358 51.4304 123.345 51.1203 124.106 50.4436C124.867 49.7952 125.346 48.8648 125.544 47.6242H128.194C127.743 49.5414 126.841 50.9511 125.459 51.8533C124.106 52.7555 122.189 53.2066 119.764 53.2066C116.832 53.2066 114.576 52.4454 113.026 50.8947C111.447 49.3441 110.686 47.1449 110.686 44.2692C110.686 41.4498 111.475 39.2789 113.082 37.7C114.689 36.1212 116.916 35.3317 119.792 35.3317C122.612 35.3317 124.754 36.1493 126.249 37.8128C127.743 39.4762 128.532 41.9009 128.617 45.0868ZM122.414 43.1978C122.414 40.9705 122.217 39.3916 121.794 38.4894C121.371 37.5872 120.666 37.1361 119.679 37.1361C118.721 37.1361 118.016 37.5872 117.593 38.4612C117.17 39.3353 116.973 40.8295 116.973 42.8877V43.1696H122.414V43.1978Z" fill="#D1050C"/>
<path d="M145.589 35.6136V40.6603H143.785C143.729 39.7581 143.475 39.0815 143.052 38.6304C142.629 38.1793 142.009 37.9819 141.191 37.9819C139.951 37.9819 138.992 38.5176 138.287 39.6171C137.582 40.6885 137.216 42.211 137.216 44.1281V50.8383H140.289V52.7555H129.152V50.8383H131.549V37.7563H128.955V35.8392H137.188V38.8559C137.752 37.6718 138.485 36.7978 139.387 36.2339C140.289 35.67 141.417 35.3881 142.714 35.3881C143.052 35.3881 143.447 35.4163 143.926 35.4726C144.433 35.4726 144.969 35.529 145.589 35.6136Z" fill="#D1050C"/>
<path d="M164.226 37.7564V52.5582C164.226 54.9265 163.38 56.7872 161.688 58.0842C159.996 59.3811 157.6 60.0295 154.499 60.0295C153.371 60.0295 152.243 59.945 151.059 59.7758C149.903 59.6066 148.719 59.3247 147.478 58.9864V54.9265H149.283C149.452 56.0542 149.903 56.8718 150.636 57.4075C151.369 57.9432 152.44 58.2251 153.794 58.2251C155.542 58.2251 156.754 57.8022 157.487 56.9846C158.192 56.1388 158.559 54.6727 158.559 52.5582V50.641C158.079 51.515 157.431 52.1917 156.613 52.6146C155.796 53.0375 154.809 53.263 153.596 53.263C151.2 53.263 149.311 52.4736 147.929 50.8665C146.548 49.2595 145.871 47.0886 145.871 44.3256C145.871 41.5344 146.548 39.3635 147.929 37.7846C149.311 36.2057 151.2 35.4163 153.596 35.4163C154.781 35.4163 155.796 35.6419 156.613 36.0648C157.431 36.4877 158.079 37.1643 158.559 38.0383V35.8956H166.622V37.8128H164.226V37.7564ZM158.587 43.4516C158.587 41.478 158.333 40.0401 157.826 39.1661C157.318 38.2921 156.5 37.841 155.373 37.841C154.217 37.841 153.371 38.3203 152.92 39.2225C152.441 40.1529 152.215 41.8445 152.215 44.2692C152.215 46.6939 152.441 48.3855 152.92 49.3159C153.399 50.2463 154.217 50.7256 155.373 50.7256C156.5 50.7256 157.29 50.2745 157.826 49.4005C158.333 48.5265 158.587 47.0886 158.587 45.115V43.4516Z" fill="#D1050C"/>
<path d="M184.046 35.6136V40.6603H182.242C182.185 39.7581 181.931 39.0815 181.509 38.6304C181.086 38.1793 180.465 37.9819 179.648 37.9819C178.407 37.9819 177.449 38.5176 176.744 39.6171C176.039 40.6885 175.672 42.211 175.672 44.1281V50.8383H178.746V52.7555H167.609V50.8383H170.005V37.7563H167.412V35.8392H175.644V38.8559C176.208 37.6718 176.941 36.7978 177.843 36.2339C178.746 35.67 179.873 35.3881 181.17 35.3881C181.509 35.3881 181.903 35.4163 182.383 35.4726C182.89 35.4726 183.426 35.529 184.046 35.6136Z" fill="#D1050C"/>
<path d="M202.287 45.0868H190.643V45.2278C190.643 47.4269 190.982 49.0057 191.63 49.9643C192.278 50.9511 193.35 51.4304 194.816 51.4304C196.028 51.4304 197.015 51.1203 197.776 50.4436C198.537 49.7952 199.017 48.8648 199.214 47.6242H201.864C201.413 49.5414 200.511 50.9511 199.13 51.8533C197.776 52.7555 195.859 53.2066 193.434 53.2066C190.502 53.2066 188.247 52.4454 186.696 50.8947C185.117 49.3441 184.356 47.1449 184.356 44.2692C184.356 41.4498 185.145 39.2789 186.752 37.7C188.359 36.1212 190.587 35.3317 193.463 35.3317C196.282 35.3317 198.425 36.1493 199.919 37.8128C201.385 39.4762 202.174 41.9009 202.287 45.0868ZM196.085 43.1978C196.085 40.9705 195.887 39.3916 195.464 38.4894C195.041 37.5872 194.337 37.1361 193.35 37.1361C192.391 37.1361 191.686 37.5872 191.263 38.4612C190.841 39.3353 190.643 40.8295 190.643 42.8877V43.1696H196.085V43.1978Z" fill="#D1050C"/>
<path d="M205.135 37.7563H202.738V35.8392H210.802V54.7854C210.802 56.5052 210.182 57.8303 208.969 58.7044C207.729 59.5784 205.924 60.0295 203.528 60.0295C202.879 60.0295 202.203 59.9731 201.498 59.8603C200.765 59.7475 200.032 59.6066 199.242 59.4092V55.8004L201.047 55.8286C201.075 56.6744 201.244 57.2947 201.554 57.6612C201.864 58.0277 202.372 58.2251 203.077 58.2251C203.866 58.2251 204.402 57.9713 204.712 57.4638C205.022 56.9563 205.163 56.0541 205.163 54.7572V37.7563H205.135ZM204.486 31.018C204.486 30.144 204.768 29.4392 205.36 28.8471C205.953 28.255 206.686 27.9731 207.56 27.9731C208.377 27.9731 209.11 28.2832 209.702 28.8753C210.294 29.4674 210.605 30.2004 210.605 31.0462C210.605 31.892 210.323 32.5969 209.731 33.1889C209.138 33.781 208.434 34.063 207.588 34.063C206.714 34.063 206.009 33.781 205.417 33.1889C204.768 32.5969 204.486 31.8638 204.486 31.018Z" fill="#D1050C"/>
<path d="M214.016 50.1898C214.016 49.3722 214.326 48.6392 214.918 48.0471C215.51 47.455 216.215 47.1449 217.061 47.1449C217.907 47.1449 218.611 47.455 219.204 48.0471C219.796 48.6392 220.106 49.344 220.106 50.1898C220.106 51.0356 219.796 51.7405 219.204 52.3326C218.611 52.9246 217.878 53.2348 217.061 53.2348C216.243 53.2348 215.51 52.9246 214.918 52.3326C214.298 51.7405 214.016 51.0075 214.016 50.1898Z" fill="#D1050C"/>
<path d="M240.18 50.8383H242.576V52.7555H234.513V50.6128C234.034 51.4868 233.385 52.1635 232.568 52.5864C231.75 53.0093 230.763 53.2348 229.551 53.2348C227.154 53.2348 225.265 52.4454 223.884 50.8383C222.502 49.2313 221.826 47.0604 221.826 44.2974C221.826 41.5062 222.502 39.3353 223.884 37.7564C225.265 36.1776 227.154 35.3881 229.551 35.3881C230.735 35.3881 231.75 35.6137 232.568 36.0366C233.385 36.4595 234.034 37.1361 234.513 38.0102V29.9185H232.088V28.0013H240.152V50.8383H240.18ZM234.541 45.115V43.4516C234.541 41.478 234.287 40.0401 233.78 39.1661C233.272 38.2921 232.455 37.841 231.327 37.841C230.171 37.841 229.325 38.3203 228.874 39.2225C228.395 40.1529 228.169 41.8445 228.169 44.2692C228.169 46.6939 228.395 48.3855 228.874 49.3159C229.353 50.2463 230.171 50.7256 231.327 50.7256C232.455 50.7256 233.244 50.2745 233.78 49.4005C234.287 48.5265 234.541 47.1168 234.541 45.115Z" fill="#D1050C"/>
<path d="M253.656 52.7555H243.479V50.8383H245.875V29.8621H243.479V27.9449H251.542V43.8745L258.393 37.7282H256.363V35.811H264.088V37.7282H260.959L256.56 41.6753L263.693 50.8383H265.526V52.7555H255.827V50.8383H257.829L253.121 44.8049L251.542 46.2146V50.8665H253.685V52.7555H253.656Z" fill="#D1050C"/>
<path d="M73.0188 18.359L37.3818 2.82424C37.1562 2.73966 36.9025 2.73966 36.7051 2.82424L0.927133 18.359C0.476032 18.5564 0.278675 19.0639 0.476032 19.515C0.617001 19.8533 0.955327 20.0507 1.29365 20.0507C1.40643 20.0507 1.5192 20.0225 1.63198 19.9943L4.59233 18.7538V58.93C4.59233 59.4093 4.98704 59.804 5.46634 59.804H68.5359C69.0152 59.804 69.41 59.4093 69.41 58.93V18.7256L72.3421 19.9943C72.7932 20.1916 73.3007 19.9661 73.4981 19.5432C73.6672 19.0639 73.4699 18.5282 73.0188 18.359ZM37.0152 4.60045L38.2276 5.13613H35.7747L37.0152 4.60045ZM67.6055 18.9793H65.8575V19.9097H67.6055V20.248H64.617V21.1784H67.6055V21.5168H65.8575V22.4471H67.6055V22.7855H64.617V23.7159H67.6055V24.0542H65.8575V24.9846H67.6055V25.3229H64.617V26.2533H67.6055V26.5916H65.8575V27.522H67.6055V27.8604H64.617V28.7908H67.6055V29.1291H65.8575V30.0595H67.6055V30.3978H64.617V31.3282H67.6055V31.6665H65.8575V32.5969H67.6055V32.9353H64.617V33.8656H67.6055V34.204H65.8575V35.1344H67.6055V35.4727H64.617V36.4031H67.6055V36.7414H65.8575V37.6718H67.6055V38.0101H64.617V38.9405H67.6055V39.2789H65.8575V40.2093H67.6055V40.5476H64.617V41.478H67.6055V41.8163H65.8575V42.7467H67.6055V43.085H64.617V44.0154H67.6055V44.3538H65.8575V45.2841H67.6055V45.6225H64.617V46.5529H67.6055V46.8912H65.8575V47.8216H67.6055V48.1599H64.617V49.0903H67.6055V49.4286H65.8575V50.359H67.6055V50.6974H64.617V51.6278H67.6055V51.9661H65.8575V52.8965H67.6055V53.2348H64.617V54.1652H67.6055V54.5035H65.8575V55.4339H67.6055V55.7723H64.617V56.7027H67.6055V57.041H65.8575V57.9714H67.6055V58.2815H6.31216V57.9714H8.00379V57.041H6.31216V56.7027H9.3007V55.7723H6.31216V55.4339H8.00379V54.5035H6.31216V54.1652H9.3007V53.2348H6.31216V52.6709H8.00379V51.7405H6.31216V51.4022H9.3007V50.4718H6.31216V50.1335H8.00379V49.2031H6.31216V48.8648H9.3007V47.9344H6.31216V47.596H8.00379V46.6656H6.31216V46.3273H9.3007V45.3969H6.31216V45.0586H8.00379V44.1282H6.31216V43.7899H9.3007V42.8595H6.31216V42.5212H8.00379V41.6753H6.31216V41.337H9.3007V40.4066H6.31216V40.0683H8.00379V39.1379H6.31216V38.7996H9.3007V37.8692H6.31216V37.5308H8.00379V36.6004H6.31216V36.2621H9.3007V35.3317H6.31216V34.9934H8.00379V34.063H6.31216V33.7247H9.3007V32.7943H6.31216V32.456H8.00379V31.5256H6.31216V31.2436H9.3007V30.3132H6.31216V29.9749H8.00379V29.0445H6.31216V28.7062H9.3007V27.7758H6.31216V27.4375H8.00379V26.5071H6.31216V26.1687H9.3007V25.2383H6.31216V24.9H8.00379V23.9696H6.31216V23.6313H9.3007V22.7009H6.31216V22.3626H8.00379V21.4322H6.31216V21.0938H9.3007V20.248H6.31216V19.9097H8.00379V18.9793H6.31216V18.641H9.3007V17.7106H6.87603L7.66546 17.3723H8.03198V17.2313L8.42669 17.0621V17.4005H10.3157V16.4701H9.78L10.5694 16.1317H11.5844V15.6806L11.9509 15.5115V16.1317H16.1518V15.2013H12.6558L13.4452 14.863H14.9113V14.2145L15.306 14.0454V14.863H17.195V13.9326H15.5315L16.321 13.5943H18.4355V12.6639L19.2249 12.3256H19.5069V12.2128L19.9016 12.0436V12.3538H21.8188V11.4234H21.3395L22.1289 11.085H25.3148V10.1546H24.2434L25.0329 9.81631H26.4144V9.22424L26.8091 9.05508V9.81631H28.6981V8.88591H27.1192L27.9932 8.4912V8.54759H32.1941V7.61719H30.0232L30.8126 7.27886H31.01V7.19428L31.4047 7.02512V7.27886H33.2937V6.34847H32.8989L33.6884 6.01014H34.4214V5.67182L34.8161 5.50265V6.01014H39.017V5.41807L39.4117 5.58723V6.01014H40.3421L41.1315 6.34847H40.5959V7.27886H42.4848V6.94054L42.8796 7.1097V7.25067H43.2179L44.0073 7.589H41.7518V8.51939H45.9527V8.43481L46.9113 8.85772H45.1914V9.81631H47.0804V8.97049L47.4751 9.13966V9.81631H48.9976L49.787 10.1546H48.6029V11.085H51.9016L52.691 11.4234H52.0989V12.3538H53.9879V12.0154L54.3826 12.1846V12.3538H54.7773L55.5668 12.6921H55.5104V13.6225H57.6813L58.4707 13.9608H56.7227V14.8912H58.6117V14.0454L59.0064 14.2145V14.8912H60.5571L61.3465 15.2295H57.7941V16.1599H61.995V15.5115L62.4179 15.7088V16.1599H63.461L64.2505 16.4982H63.6302V17.4286H65.5192V17.0621L65.9139 17.2313V17.4286H66.3368L67.1263 17.767H64.7016V18.6974H67.6901V18.9793H67.6055Z" fill="#D1050C"/>
<path d="M68.3949 17.5696V58.789H5.66357V17.0057L37.3253 3.52905L68.3949 17.5696Z" fill="#D1050C"/>
<path d="M14.6011 52.7555V50.1053H18.7456V22.5599H14.6011V19.9097H28.0495L37.3253 40.9987L46.6575 19.9097H60.0777V22.5599H55.9332V50.1053H60.1059V52.7555H43.3588V50.1053H47.5033V25.041L37.3817 47.9626H31.8557L21.8187 25.041V50.1053H25.9632V52.7555H14.6011Z" fill="white" stroke="white" stroke-width="1.23684" stroke-miterlimit="10"/>
</g>
<defs>
<clipPath id="clip0_17406_40649">
<rect width="265.846" height="64" fill="white" transform="translate(0.0769043)"/>
</clipPath>
</defs>
</svg>
