<svg width="96" height="96" viewBox="0 0 96 96" fill="none" xmlns="http://www.w3.org/2000/svg">
<rect width="96" height="96" rx="48" fill="#F7F8F8"/>
<path d="M47.9998 48C45.0665 48 42.5554 46.9555 40.4665 44.8666C38.3776 42.7777 37.3332 40.2666 37.3332 37.3333C37.3332 34.4 38.3776 31.8888 40.4665 29.8C42.5554 27.7111 45.0665 26.6666 47.9998 26.6666C50.9332 26.6666 53.4443 27.7111 55.5332 29.8C57.6221 31.8888 58.6665 34.4 58.6665 37.3333C58.6665 40.2666 57.6221 42.7777 55.5332 44.8666C53.4443 46.9555 50.9332 48 47.9998 48ZM26.6665 69.3333V61.8666C26.6665 60.3555 27.0554 58.9666 27.8332 57.7C28.6109 56.4333 29.6443 55.4666 30.9332 54.8C33.6887 53.4222 36.4887 52.3888 39.3332 51.7C42.1776 51.0111 45.0665 50.6666 47.9998 50.6666C50.9332 50.6666 53.8221 51.0111 56.6665 51.7C59.511 52.3888 62.311 53.4222 65.0665 54.8C66.3554 55.4666 67.3887 56.4333 68.1665 57.7C68.9443 58.9666 69.3332 60.3555 69.3332 61.8666V69.3333H26.6665Z" fill="#3690BE"/>
</svg>
