<svg width="32" height="32" viewBox="0 0 32 32" fill="none" xmlns="http://www.w3.org/2000/svg">
<path fill-rule="evenodd" clip-rule="evenodd" d="M15.9999 2.66669C8.63991 2.66669 2.66657 8.64002 2.66657 16C2.66657 18.3867 3.29324 20.64 4.39991 22.5734C3.45324 25.4 1.98657 29.8134 1.98657 29.8134L10.1466 27.9734C11.9866 28.8667 13.9732 29.3334 15.9999 29.32C23.3599 29.32 29.3332 23.3467 29.3332 15.9867C29.3332 8.62669 23.3599 2.66669 15.9999 2.66669ZM15.9999 26.6667C14.2666 26.6667 12.5466 26.24 10.9599 25.4L10.5199 25.1734L6.01324 26.1867L7.31991 22.2534L6.98657 21.72C5.94657 20.0667 5.33324 18.12 5.33324 16.0134C5.33324 10.12 10.1066 5.34669 15.9999 5.34669C21.8932 5.34669 26.6666 10.12 26.6666 16.0134C26.6666 21.9067 21.8932 26.68 15.9999 26.68V26.6667Z" fill="#1D1F22"/>
<path d="M18.3872 15.8773C18.133 16.0924 17.8738 16.288 17.6098 16.464C17.3458 16.6302 17.121 16.8111 16.9352 17.0066C16.7592 17.2022 16.6712 17.4369 16.6712 17.7107V18.1947H14.3978V17.8133C14.3978 17.3831 14.437 17.0262 14.5152 16.7427C14.5934 16.4591 14.7254 16.2049 14.9112 15.98C15.1067 15.7551 15.3707 15.5302 15.7032 15.3053C15.9574 15.1293 16.1823 14.9729 16.3778 14.836C16.5734 14.6893 16.725 14.5378 16.8325 14.3813C16.9498 14.2151 17.0085 14.0244 17.0085 13.8093C17.0085 13.5258 16.9254 13.3058 16.7592 13.1493C16.593 12.9929 16.3241 12.9146 15.9525 12.9146C15.5125 12.9146 15.1947 13.032 14.9992 13.2666C14.8134 13.4915 14.7205 13.7751 14.7205 14.1173V14.2933H12.5205V14.0146C12.5205 13.4182 12.6721 12.8902 12.9752 12.4306C13.2881 11.9613 13.7085 11.5946 14.2365 11.3306C14.7645 11.0569 15.3561 10.92 16.0112 10.92C16.6174 10.92 17.1747 11.0275 17.6832 11.2426C18.1916 11.4578 18.5974 11.7755 18.9005 12.196C19.2036 12.6164 19.3552 13.1298 19.3552 13.736C19.3552 14.0098 19.3161 14.2786 19.2378 14.5426C19.1694 14.7969 19.0618 15.0364 18.9152 15.2613C18.7783 15.4862 18.6023 15.6915 18.3872 15.8773ZM15.5418 21.48C15.1507 21.48 14.8232 21.3578 14.5592 21.1133C14.305 20.8689 14.1778 20.5511 14.1778 20.16C14.1778 19.7591 14.305 19.4413 14.5592 19.2066C14.8232 18.972 15.1507 18.8547 15.5418 18.8547C15.9427 18.8547 16.2703 18.972 16.5245 19.2066C16.7787 19.4413 16.9058 19.7591 16.9058 20.16C16.9058 20.5511 16.7787 20.8689 16.5245 21.1133C16.2703 21.3578 15.9427 21.48 15.5418 21.48Z" fill="#1D1F22"/>
</svg>
