<svg width="16" height="16" viewBox="0 0 16 16" fill="none" xmlns="http://www.w3.org/2000/svg">
<path fill-rule="evenodd" clip-rule="evenodd" d="M3.94254 1.39587L5.33333 4.52516V12.6666H13.3333V4.80811L12.0575 1.93739L13.2759 1.39587L14.6667 4.52516V14H4V4.80811L2.72412 1.93739L3.94254 1.39587Z" fill="#1D1F22"/>
<path fill-rule="evenodd" clip-rule="evenodd" d="M14.0001 5.99996H4.66675V4.66663H14.0001V5.99996Z" fill="#1D1F22"/>
<path fill-rule="evenodd" clip-rule="evenodd" d="M4.66667 7.33333H2V6H4.66667V7.33333Z" fill="#1D1F22"/>
<path fill-rule="evenodd" clip-rule="evenodd" d="M10.6666 8.66671H7.33325V7.33337L10.6666 7.33337V8.66671Z" fill="#1D1F22"/>
<path fill-rule="evenodd" clip-rule="evenodd" d="M11.3334 8.66671H8.66675V7.33337H11.3334V8.66671Z" fill="#1D1F22"/>
<path fill-rule="evenodd" clip-rule="evenodd" d="M4.66659 10.6667H1.33325L1.33325 9.33337H4.66659V10.6667Z" fill="#1D1F22"/>
<path fill-rule="evenodd" clip-rule="evenodd" d="M4.66675 14H0.666748L0.666748 12.6666L4.66675 12.6666V14Z" fill="#1D1F22"/>
</svg>
