<svg width="24" height="24" viewBox="0 0 24 24" fill="none" xmlns="http://www.w3.org/2000/svg">
<path fill-rule="evenodd" clip-rule="evenodd" d="M3.83602 5H2V3H4.5C4.90234 3 5.2655 3.24113 5.42164 3.61194L6.63766 6.5H21.0955C22.0247 6.5 22.6291 7.47789 22.2135 8.30902L18.8944 14.9472C18.708 15.3201 18.3099 15.5381 17.8953 15.4945L10.1583 14.6801C8.70831 14.5275 7.45624 13.598 6.89046 12.2543L3.83602 5ZM7.47976 8.5L8.73373 11.4782C9.01662 12.15 9.64265 12.6148 10.3676 12.6911L17.4155 13.4329L19.882 8.5H7.47976Z" fill="currentColor"/>
<path fill-rule="evenodd" clip-rule="evenodd" d="M18.55 15.45C17.5559 15.45 16.75 16.2558 16.75 17.25C16.75 18.2441 17.5559 19.05 18.55 19.05C19.5441 19.05 20.35 18.2441 20.35 17.25C20.35 16.2558 19.5441 15.45 18.55 15.45ZM14.75 17.25C14.75 15.1513 16.4513 13.45 18.55 13.45C20.6487 13.45 22.35 15.1513 22.35 17.25C22.35 19.3486 20.6487 21.05 18.55 21.05C16.4513 21.05 14.75 19.3486 14.75 17.25Z" fill="currentColor"/>
<path fill-rule="evenodd" clip-rule="evenodd" d="M6 18.9479V10H8V18.9479C8 18.96 8.00099 18.9681 8.00179 18.9728C8.0024 18.9763 8.003 18.9784 8.00334 18.9795C8.00595 18.982 8.01643 18.9909 8.03746 18.9963C8.05849 19.0018 8.07194 18.9991 8.07545 18.9982C8.07626 18.9974 8.07784 18.9958 8.08007 18.9931C8.08303 18.9894 8.08783 18.9828 8.09371 18.9722L11.1258 13.5144L12.8742 14.4856L9.84202 19.9435C8.81473 21.7926 6 21.0632 6 18.9479Z" fill="currentColor"/>
</svg>
