<svg width="32" height="32" viewBox="0 0 32 32" fill="none" xmlns="http://www.w3.org/2000/svg">
<path fill-rule="evenodd" clip-rule="evenodd" d="M16.0001 5.33335C10.109 5.33335 5.33341 10.109 5.33341 16C5.33341 18.2396 6.02362 20.318 7.20291 22.034C9.8589 20.7312 12.8457 20 16.0001 20C19.1545 20 22.1413 20.7312 24.7973 22.034C25.9765 20.318 26.6667 18.2396 26.6667 16C26.6667 10.109 21.8911 5.33335 16.0001 5.33335ZM26.2057 24.5808C28.1575 22.2619 29.3334 19.2683 29.3334 16C29.3334 8.63622 23.3639 2.66669 16.0001 2.66669C8.63628 2.66669 2.66675 8.63622 2.66675 16C2.66675 19.2683 3.84265 22.2619 5.79445 24.5809C5.805 24.5938 5.81576 24.6066 5.82673 24.6191C8.27247 27.503 11.9225 29.3334 16.0001 29.3334C20.0776 29.3334 23.7277 27.503 26.1734 24.6191C26.1844 24.6066 26.1952 24.5938 26.2057 24.5808ZM22.9316 24.1078C20.81 23.181 18.4664 22.6667 16.0001 22.6667C13.5338 22.6667 11.1902 23.181 9.06857 24.1078C10.9329 25.7032 13.354 26.6667 16.0001 26.6667C18.6462 26.6667 21.0673 25.7032 22.9316 24.1078ZM16.0001 10.6667C14.5273 10.6667 13.3334 11.8606 13.3334 13.3334C13.3334 14.8061 14.5273 16 16.0001 16C17.4728 16 18.6667 14.8061 18.6667 13.3334C18.6667 11.8606 17.4728 10.6667 16.0001 10.6667ZM10.6667 13.3334C10.6667 10.3878 13.0546 8.00002 16.0001 8.00002C18.9456 8.00002 21.3334 10.3878 21.3334 13.3334C21.3334 16.2789 18.9456 18.6667 16.0001 18.6667C13.0546 18.6667 10.6667 16.2789 10.6667 13.3334Z" fill="#1D1F22"/>
</svg>
