<svg width="24" height="24" viewBox="0 0 24 24" fill="none" xmlns="http://www.w3.org/2000/svg">
<g id="Icon/Outline/promo">
<path id="Vector (Stroke)" fill-rule="evenodd" clip-rule="evenodd" d="M21 2L20.9997 22.618L15.9998 20.1181L11.9999 22.118L7.99996 20.1181L3 22.6181L3.0003 2.0001L21 2ZM5.00027 4.00009L5.00005 19.382L7.99996 17.882L11.9999 19.882L15.9998 17.882L18.9998 19.382L19 4.00001L5.00027 4.00009Z" fill="#1D1F22"/>
<path id="Vector (Stroke)_2" fill-rule="evenodd" clip-rule="evenodd" d="M17.4144 6.99991L8.00015 16.4141L6.58594 14.9999L16.0002 5.58569L17.4144 6.99991ZM7.48831 6.48806C7.80087 6.1755 8.22479 5.99991 8.66682 5.99991C9.10884 5.99991 9.53277 6.1755 9.84533 6.48806C10.1579 6.80062 10.3335 7.22455 10.3335 7.66657C10.3335 8.1086 10.1579 8.53252 9.84533 8.84509C9.53277 9.15765 9.10884 9.33324 8.66682 9.33324C8.22479 9.33324 7.80087 9.15765 7.48831 8.84509C7.17574 8.53252 7.00015 8.1086 7.00015 7.66657C7.00015 7.22455 7.17574 6.80062 7.48831 6.48806ZM14.155 13.1547C14.4675 12.8422 14.8915 12.6666 15.3335 12.6666C15.7755 12.6666 16.1994 12.8422 16.512 13.1547C16.8246 13.4673 17.0002 13.8912 17.0002 14.3332C17.0002 14.7753 16.8246 15.1992 16.512 15.5118C16.1994 15.8243 15.7755 15.9999 15.3335 15.9999C14.8915 15.9999 14.4675 15.8243 14.155 15.5118C13.8424 15.1992 13.6668 14.7753 13.6668 14.3332C13.6668 13.8912 13.8424 13.4673 14.155 13.1547Z" fill="#1D1F22"/>
</g>
</svg>
