<svg width="24" height="24" viewBox="0 0 24 24" fill="none" xmlns="http://www.w3.org/2000/svg">
<path fill-rule="evenodd" clip-rule="evenodd" d="M7.46078 4.22624C9.18127 3.22158 11.1865 2.81613 13.1621 3.07344C15.1378 3.33076 16.9722 4.23629 18.378 5.64812C19.7838 7.05996 20.6814 8.8983 20.9302 10.8751L21.0551 11.8672L19.0707 12.117L18.9458 11.1248C18.7523 9.58728 18.0542 8.15742 16.9608 7.05929C15.8673 5.96116 14.4405 5.25683 12.9038 5.05669C11.3672 4.85655 9.8075 5.17191 8.4693 5.95334C7.5853 6.46955 6.83093 7.16986 6.25324 7.99993H10V9.99993H3.00001V2.99993H5.00001V6.34015C5.68095 5.4979 6.51289 4.77975 7.46078 4.22624ZM4.9285 11.8823L5.05409 12.8743C5.24866 14.4113 5.9474 15.8404 7.04092 16.9378C8.13443 18.0353 9.56099 18.7391 11.0973 18.9392C12.6335 19.1393 14.1928 18.8243 15.5309 18.0435C16.4143 17.528 17.1684 16.8288 17.7463 15.9999H14V13.9999H21V20.9999H19V17.6585C18.3188 18.5002 17.4867 19.2179 16.5388 19.7709C14.8185 20.7747 12.814 21.1796 10.839 20.9224C8.86395 20.6652 7.02998 19.7604 5.62417 18.3495C4.21836 16.9386 3.32007 15.1014 3.06993 13.1255L2.94434 12.1334L4.9285 11.8823Z" fill="#1D1F22"/>
</svg>
