<svg width="246" height="180" viewBox="0 0 246 180" fill="none" xmlns="http://www.w3.org/2000/svg">
<rect x="1" y="1" width="244" height="178" stroke="#F7F8F8" stroke-width="2"/>
<path opacity="0.24" d="M97.4 76.16L97.79 89.2254C100.26 90.4898 107.306 93.1029 115.73 93.44C117.29 87.1181 119.24 82.0605 122.36 82.0605C125.48 82.0605 127.43 87.1181 128.99 93.44C137.414 93.1029 144.46 90.4898 146.93 89.2254L147.32 76.16H97.4Z" fill="#2D7396"/>
<path d="M96.12 67.84H149.24L150.52 69.76V72.32L149.24 74.24H96.12L94.84 72.32V69.76L96.12 67.84Z" fill="#2D7396"/>
<path fill-rule="evenodd" clip-rule="evenodd" d="M115.28 38.8961L120.752 55.064L118.318 55.8235L112.882 39.7637C111.857 40.2188 110.582 40.884 109.199 41.8316L112.214 50.7399L109.78 51.4994L107.063 43.4736C105.645 44.6909 104.193 46.2114 102.84 48.1025C98.6799 53.6321 98.6799 65.9201 98.6799 65.9201H147.32C147.32 65.9201 147.32 53.9163 143.16 48.1025C141.807 46.2114 140.355 44.6909 138.937 43.4736L136.22 51.4994L133.785 50.7399L136.801 41.8317C135.418 40.884 134.142 40.2189 133.118 39.7637L127.682 55.8235L125.248 55.064L130.72 38.8961C130.693 38.8896 130.68 38.8865 130.68 38.8865L129.4 35.8145C129.4 35.8145 125.512 35.2001 123 35.2001C120.488 35.2001 116.6 35.8145 116.6 35.8145L115.32 38.8865C115.32 38.8865 115.306 38.8896 115.28 38.8961Z" fill="#2D7396"/>
<rect width="246" height="52" transform="translate(0 128)" fill="#F7F8F8"/>
</svg>
