<svg width="246" height="180" viewBox="0 0 246 180" fill="none" xmlns="http://www.w3.org/2000/svg">
<rect x="1" y="1" width="244" height="178" stroke="#F7F8F8" stroke-width="2"/>
<rect opacity="0.24" x="96.12" y="66.5601" width="24.32" height="24.32" fill="#2D7396"/>
<rect opacity="0.24" x="125.56" y="66.5601" width="24.32" height="24.32" fill="#2D7396"/>
<rect opacity="0.24" x="96.12" y="37.12" width="24.32" height="24.32" fill="#2D7396"/>
<g clip-path="url(#clip0_16293_21807)">
<path d="M130.218 31.6146C130.462 32.3932 130.594 33.2217 130.594 34.081C130.594 38.6216 126.913 42.3024 122.373 42.3024C121.513 42.3024 120.685 42.1706 119.906 41.926M136.966 31.6146C137.101 32.4167 137.171 33.2407 137.171 34.081C137.171 42.254 130.546 48.8795 122.373 48.8795C121.532 48.8795 120.708 48.8094 119.906 48.6749M124.017 34.081C124.017 34.9891 123.281 35.7253 122.373 35.7253C121.465 35.7253 120.728 34.9891 120.728 34.081C120.728 33.1729 121.465 32.4368 122.373 32.4368C123.281 32.4368 124.017 33.1729 124.017 34.081Z" stroke="#2D7396" stroke-width="3.84"/>
<path d="M123.177 49.2906C125.854 52.2155 127.488 56.1117 127.488 60.3894C127.488 62.7279 126.999 64.9524 126.119 66.9665M129.939 47.2352C132.539 50.9639 134.065 55.4985 134.065 60.3894C134.065 62.6748 133.732 64.8825 133.111 66.9665M134.887 42.8494C138.504 47.7581 140.642 53.8241 140.642 60.3894C140.642 62.6499 140.388 64.8512 139.908 66.9665" stroke="#2D7396" stroke-width="3.84"/>
<path d="M152.974 64.318C147.704 64.318 142.986 66.6786 139.82 70.4001M152.974 57.7409C148.787 57.7409 144.852 58.8202 141.432 60.7158M152.974 51.1638C148.262 51.1638 143.801 52.235 139.82 54.1472M152.974 44.5867C147.485 44.5867 142.276 45.7819 137.592 47.9261M152.974 38.0096C146.84 38.0096 141.003 39.2769 135.709 41.5639" stroke="#2D7396" stroke-width="3.84"/>
</g>
<rect width="246" height="52" transform="translate(0 128)" fill="#F7F8F8"/>
<defs>
<clipPath id="clip0_16293_21807">
<rect width="29.44" height="29.44" fill="white" transform="translate(122.872 34.5601)"/>
</clipPath>
</defs>
</svg>
