<svg width="247" height="180" viewBox="0 0 247 180" fill="none" xmlns="http://www.w3.org/2000/svg">
<rect x="1.5" y="1" width="244" height="178" stroke="#F7F8F8" stroke-width="2"/>
<g clip-path="url(#clip0_16293_21985)">
<path opacity="0.24" d="M131.08 79.143C129.95 79.3313 128.782 78.8228 128.18 77.7681C127.407 76.412 127.859 74.698 129.215 73.907C130.572 73.1348 132.304 73.5868 133.077 74.9429C133.679 75.9976 133.529 77.2595 132.813 78.1448L133.943 79.6704C138.67 76.5062 141.891 71.2513 142.268 65.2431L140.403 65.017C140.008 66.0906 138.972 66.844 137.766 66.844C136.203 66.844 134.941 65.5821 134.941 64.0188C134.941 62.4555 136.203 61.1936 137.766 61.1936C138.972 61.1936 139.989 61.9658 140.403 63.0206L142.268 62.7946C141.891 56.7675 138.689 51.5126 133.962 48.3484L132.813 49.874C133.529 50.7592 133.679 52.0212 133.077 53.0759C132.304 54.432 130.572 54.884 129.215 54.1118C127.859 53.3396 127.407 51.6068 128.18 50.2507C128.782 49.196 129.95 48.7063 131.08 48.8946L131.815 47.1618C129.291 45.9188 126.466 45.1842 123.471 45.1842C120.476 45.1842 117.67 45.8999 115.146 47.143L115.881 48.8758C117.011 48.6874 118.178 49.196 118.781 50.2507C119.553 51.6068 119.101 53.3396 117.745 54.1118C116.389 54.884 114.656 54.432 113.884 53.0759C113.281 52.0212 113.432 50.7592 114.148 49.874L113.018 48.3484C108.29 51.5126 105.088 56.7675 104.693 62.7757L106.557 63.0017C106.953 61.9282 107.989 61.1748 109.194 61.1748C110.758 61.1748 112.019 62.4367 112.019 64C112.019 65.5632 110.758 66.8252 109.194 66.8252C107.989 66.8252 106.972 66.0529 106.557 64.9982L104.693 65.2242C105.07 71.2513 108.271 76.5062 112.999 79.6704L114.148 78.1636C113.432 77.2784 113.281 76.0165 113.884 74.9617C114.656 73.6056 116.389 73.1536 117.745 73.9258C119.101 74.698 119.553 76.4308 118.781 77.7869C118.178 78.8416 117.011 79.3313 115.881 79.143L115.146 80.8758C117.67 82.1189 120.495 82.8534 123.49 82.8534C126.484 82.8534 129.291 82.1377 131.796 80.8946L131.061 79.1618L131.08 79.143Z" fill="#2D7396"/>
<path d="M114.449 45.3914C117.18 44.0541 120.25 43.2819 123.509 43.2819C126.767 43.2819 129.856 44.0541 132.587 45.4102L137.032 35.0324C132.907 33.1112 128.349 32 123.509 32C118.668 32 114.129 33.0924 110.023 35.0135L114.449 45.4102V45.3914Z" fill="#2D7396"/>
<path d="M102.866 62.5309C103.318 55.9953 106.802 50.2696 111.925 46.804L105.164 37.7822C97.6298 43.0748 92.4691 51.4938 91.6216 61.156L102.847 62.5309H102.866Z" fill="#2D7396"/>
<path d="M135.111 46.8417C140.234 50.3073 143.699 56.033 144.151 62.5686L155.377 61.2125C154.548 51.5504 149.406 43.1125 141.872 37.8199L135.092 46.8229L135.111 46.8417Z" fill="#2D7396"/>
<path d="M111.906 81.1583C106.783 77.6927 103.318 71.967 102.866 65.4314L91.6404 66.7875C92.4691 76.4496 97.611 84.8875 105.145 90.1801L111.925 81.1771L111.906 81.1583Z" fill="#2D7396"/>
<path d="M132.568 82.6086C129.837 83.9458 126.767 84.718 123.509 84.718C120.25 84.718 117.161 83.9458 114.43 82.5897L109.985 92.9676C114.11 94.8887 118.668 96 123.509 96C128.349 96 132.888 94.9076 136.975 92.9864L132.549 82.5897L132.568 82.6086Z" fill="#2D7396"/>
<path d="M144.151 65.4691C143.699 72.0047 140.215 77.7304 135.073 81.196L141.835 90.2178C149.368 84.9253 154.529 76.5062 155.377 66.844L144.151 65.4691Z" fill="#2D7396"/>
</g>
<rect width="246" height="52" transform="translate(0.5 128)" fill="#F7F8F8"/>
<defs>
<clipPath id="clip0_16293_21985">
<rect width="64" height="64" fill="white" transform="translate(91.5 32)"/>
</clipPath>
</defs>
</svg>
