<svg width="246" height="180" viewBox="0 0 246 180" fill="none" xmlns="http://www.w3.org/2000/svg">
<rect x="1" y="1" width="244" height="178" stroke="#F7F8F8" stroke-width="2"/>
<g clip-path="url(#clip0_16293_22003)">
<path d="M93.56 48.0001L97.4 35.8401L108.28 40.3201L123 35.8401L139.96 39.6801L152.12 34.5601L149.88 46.0801L153.08 59.2001L148.28 75.5201L153.08 88.9601L139 94.0801L123 90.2401L108.92 94.0801L96.76 89.6001L92.6 77.4401L97.4 62.4001L93.56 48.0001Z" stroke="#2D7396" stroke-width="2.56"/>
<path d="M108.6 76.48L98.04 62.08L108.6 57.92M108.6 76.48L102.84 91.84M108.6 76.48L119.8 78.08M119.8 78.08L122.36 80.96M119.8 78.08L123.32 64.32M122.36 80.96L123.32 89.92M122.36 80.96L137.72 76.48M137.72 76.48L148.28 75.2M137.72 76.48L132.92 62.72M132.92 62.72L139 40M132.92 62.72L123.32 64.32M149.88 46.08L136.688 48.64M123.32 64.32L108.6 57.92M108.6 57.92V40.64" stroke="#2D7396" stroke-width="2.56"/>
<path opacity="0.24" fill-rule="evenodd" clip-rule="evenodd" d="M138.634 50.7274L135.45 62.6261L139.363 73.8431L146.505 72.9774L150.575 59.1413L148.076 48.8953L138.634 50.7274ZM125.274 66.4478L122.463 77.4336L123.152 78.2082L134.596 74.8705L131.307 65.4423L125.274 66.4478ZM98.5252 66.8338L95.1487 77.4136L98.677 87.7272L101.419 88.7374L105.875 76.8557L98.5252 66.8338ZM138.208 78.8586L124.982 82.7161L125.588 88.3724L138.857 91.557L149.992 87.508L146.542 77.8484L138.208 78.8586ZM110.183 79.1507L105.961 90.4107L109.03 91.5416L120.718 88.3539L120.036 81.9885L118.58 80.3503L110.183 79.1507Z" fill="#2D7396"/>
</g>
<rect width="246" height="52" transform="translate(0 128)" fill="#F7F8F8"/>
<defs>
<clipPath id="clip0_16293_22003">
<rect width="64" height="64" fill="white" transform="translate(91 32)"/>
</clipPath>
</defs>
</svg>
