<svg width="246" height="180" viewBox="0 0 246 180" fill="none" xmlns="http://www.w3.org/2000/svg">
<rect x="1" y="1" width="244" height="178" stroke="#F7F8F8" stroke-width="2"/>
<path opacity="0.24" fill-rule="evenodd" clip-rule="evenodd" d="M95.622 70.9208L92.5867 73.9561L114.309 95.6784L143.725 66.2628L143.155 61.1367L114.497 89.7953L95.622 70.9208Z" fill="#2D7396"/>
<path fill-rule="evenodd" clip-rule="evenodd" d="M133.606 36.3055C131.779 38.2796 130.689 40.6894 130.335 43.1837C128.836 44.6834 128.836 47.1141 130.336 48.6134C131.835 50.113 134.267 50.113 135.766 48.6134C137.141 47.2388 137.255 45.0815 136.11 43.5764C136.377 42.2714 137.017 41.0273 138.029 40.0149C138.668 39.3763 139.398 38.8861 140.179 38.5441L142.102 40.4675L143.912 56.7592L114.497 86.1749L92.7742 64.4526L122.19 35.0369L133.606 36.3055ZM123.43 58.8694L123.182 53.6268L118.518 56.033L113.455 54.6492L114.302 59.8289L111.421 64.2162L116.609 65.0113L119.892 69.1066L122.251 64.4183L127.16 62.562L123.43 58.8694Z" fill="#2D7396"/>
<path opacity="0.24" d="M145.588 54.3307C145.489 53.538 145.986 52.8049 146.702 52.4501C147.492 52.0587 148.232 51.534 148.89 50.8762C152.139 47.627 152.139 42.3591 148.89 39.1099C145.641 35.8607 140.373 35.8607 137.124 39.1099C135.338 40.8953 134.534 43.2903 134.711 45.6249C134.79 46.6667 134.052 47.7083 133.008 47.7083C132.305 47.7083 131.683 47.2279 131.59 46.5315C131.129 43.0942 132.22 39.4888 134.861 36.8472C139.36 32.3483 146.654 32.3483 151.153 36.8472C155.652 41.346 155.652 48.6401 151.153 53.1389C150.09 54.2021 148.87 55.014 147.569 55.5747C146.665 55.9638 145.71 55.3066 145.588 54.3307Z" fill="#2D7396"/>
<rect width="246" height="52" transform="translate(0 128)" fill="#F7F8F8"/>
</svg>
