<svg width="246" height="180" viewBox="0 0 246 180" fill="none" xmlns="http://www.w3.org/2000/svg">
<rect x="1" y="1" width="244" height="178" stroke="#F7F8F8" stroke-width="2"/>
<path d="M106.36 43.2V39.04H135.16V55.68L136.44 56.96V68.48H124.92L120.44 71.04H110.84V55.04H115.32L106.36 43.2Z" fill="#2D7396"/>
<path d="M137.72 56.96H144.12L154.36 60.16V62.72L144.12 65.92H137.72V56.96Z" fill="#2D7396"/>
<path opacity="0.24" d="M106.36 34.56L107.64 33.28H133.88L135.16 34.56V37.76H106.36V34.56Z" fill="#2D7396"/>
<path opacity="0.24" fill-rule="evenodd" clip-rule="evenodd" d="M92.92 58.88L96.12 55.04H109.56V71.04H108.28L104.431 83.84H108.333L110.2 85.7829V94.72H92.28V85.7829L94.1467 83.84H95.48L99.3289 71.04H92.92V58.88Z" fill="#2D7396"/>
<rect width="246" height="52" transform="translate(0 128)" fill="#F7F8F8"/>
</svg>
